<svg xmlns="http://www.w3.org/2000/svg" viewBox="42 34 156 168" role="img" aria-labelledby="title">
  <title>Foundation Symbol</title>
  <defs>
    <linearGradient id="leftHand" x1="0%" y1="0%" x2="100%" y2="100%">
      <stop offset="0%" stop-color="#a7adff"/>
      <stop offset="100%" stop-color="#5e66ee"/>
    </linearGradient>
    <linearGradient id="rightHand" x1="0%" y1="0%" x2="100%" y2="100%">
      <stop offset="0%" stop-color="#ffe58a"/>
      <stop offset="100%" stop-color="#ffc31b"/>
    </linearGradient>
    <linearGradient id="leaf" x1="0%" y1="0%" x2="100%" y2="100%">
      <stop offset="0%" stop-color="#d8ff6f"/>
      <stop offset="100%" stop-color="#7fcb17"/>
    </linearGradient>
  </defs>
  <path fill="url(#leftHand)" d="M68 176c-16-13-28-31-32-51-4-21 2-43 15-61 7 19 17 37 30 52 11 13 22 26 28 42-11 8-24 15-41 18Z"/>
  <path fill="url(#leftHand)" opacity=".85" d="M95 63c-12 8-19 19-23 32-7 22-4 47 6 69 7 15 16 28 27 39-3-24 0-45 4-66 4-20 3-43-14-74Z"/>
  <path fill="url(#rightHand)" d="M172 176c16-13 28-31 32-51 4-21-2-43-15-61-7 19-17 37-30 52-11 13-22 26-28 42 11 8 24 15 41 18Z"/>
  <path fill="url(#rightHand)" opacity=".85" d="M145 63c12 8 19 19 23 32 7 22 4 47-6 69-7 15-16 28-27 39 3-24 0-45-4-66-4-20-3-43 14-74Z"/>
  <path fill="url(#leaf)" d="M120 52c17 9 28 24 28 41 0 19-15 36-28 49-13-13-28-30-28-49 0-17 11-32 28-41Z"/>
  <path fill="url(#leaf)" opacity=".78" d="M120 41c-7 10-10 20-10 31 0 18 11 36 10 67 8-18 15-31 15-49 0-18-5-34-15-49Z"/>
  <path fill="#7b5f34" d="M117 91h6v64h-6z"/>
  <path fill="#f7fbff" opacity=".8" d="M120 36c8 8 11 18 11 28 0 9-4 17-11 24-7-7-11-15-11-24 0-10 3-20 11-28Z"/>
</svg>
