<svg xmlns="http://www.w3.org/2000/svg" viewBox="38 24 164 192" role="img" aria-labelledby="title">
  <title>Medical Symbol</title>
  <g fill="#ff1e14">
    <rect x="102" y="22" width="36" height="196"/>
    <rect x="102" y="22" width="36" height="196" transform="rotate(60 120 120)"/>
    <rect x="102" y="22" width="36" height="196" transform="rotate(-60 120 120)"/>
  </g>
  <g fill="none" stroke="#ffffff" stroke-linecap="round" stroke-linejoin="round">
    <path stroke-width="9" d="M120 60v118"/>
    <path stroke-width="7" d="M128 66c-7 3-11 8-11 14 0 7 10 11 10 18 0 6-4 10-10 13"/>
    <path stroke-width="7" d="M127 96c-4-10-9-14-15-14-5 0-9 3-11 8-2 6 1 13 7 17 8 5 14 11 14 22 0 8-4 16-10 22"/>
    <path stroke-width="6" d="M113 182h14"/>
  </g>
</svg>
